<?xml version="1.0" encoding="utf-8"?>
<!-- Generator: Adobe Illustrator 25.2.1, SVG Export Plug-In . SVG Version: 6.00 Build 0)  -->
<svg version="1.1" id="레이어_1" xmlns="http://www.w3.org/2000/svg" xmlns:xlink="http://www.w3.org/1999/xlink" x="0px"
	 y="0px" viewBox="0 0 514.4 526.3" style="enable-background:new 0 0 514.4 526.3;" xml:space="preserve">
<path d="M501.6,226c-5.7-27.6-15.7-50.5-29.7-68c-16.5-20.6-39.2-34.3-59.1-46.5c-32.2-19.6-37.2-24.1-52.2-37.6
	c-6-5.4-13.6-12.2-24.9-21.8C294.9,17.7,230.2-8.3,183.9,15.7c-30,13.4-51.1,41.7-68.1,64.4l-61.6,82.2
	C35.1,187.8,11.3,219.5,7,257.6c-4.7,41.8,15,80.6,32.6,109.8c50.1,82.9,88.2,134.3,193.7,149.2c10.6,1.5,21.3,2.2,32,2.2
	c65.1,0,129.9-27.3,174.7-75C493.1,387.4,517.2,301.9,501.6,226z M192.6,34.5l0.6-0.3c9.7-5.1,20.4-7.2,31.5-7.2
	c35.4,0,74.9,21.8,97.4,40.9c11.1,9.4,18.6,16.1,24.5,21.4c2.3,2,4.4,3.9,6.3,5.7c-4.1-0.7-8.3-1.1-12.7-1.2L188,92.3L132,93
	l0.4-0.5C148.8,70.6,167.4,45.7,192.6,34.5z M57.3,356.6c-15.9-26.4-33.7-61.2-29.7-96.7c3.6-32.4,25.6-61.7,43.2-85.2l43.9-58.6
	c4.1-0.1,14.7,0,18.9,2.7c0,0,6.3,2.8,6.2,9.6v291.5c0,0,0.4,10.9-8.3,12.3l-18.9,2.9v0.3C93.8,414.8,76.8,388.9,57.3,356.6z
	 M424.9,429.6c-47.7,50.7-120,76.2-188.7,66.5c-42.9-6.1-73.4-18.2-98.8-37.7h97.3v-23.2c0,0-44.5-0.7-56.6-8.9V124.7l139.9-0.4
	c0,0,47.3-3,73.8,30c0,0,19.6,18.3,11.9,55.7c0,0-4.4,39.6-40.2,56.2c0,0-15.5,8.7-31.9,10v-41.6c0,0-0.6-6.7,4.6-8.7
	c0,0,8.4-4.5,17.6-3.8v-16h-82c0,0-44.3-0.7-51.7,29.7c0,0-8.1,28.8,15.5,44.6c0,0,9.2,6.1,13.3,7.4c0,0-29.5,8.4-36.6,28.9
	c0,0-13.3,34,18.8,55.7c0,0,16.8,10.8,35.2,10.8l88.3,0.1v-15.9l-12.8-1.3c0,0-10.2-0.5-10.2-8.5l0-56.4c0,0,68.2-2.8,92.4-44.2
	c0,0,23.2-33,16.9-75.3c0,0-1.9-20.5-9.7-33.3c9,6.6,17.4,14,24.4,22.7c12,14.9,20.6,34.8,25.6,59.2
	C495.6,299.6,473.5,377.9,424.9,429.6z M255.5,307.1c5.4-5.4,16.6-5,16.6-5c2.9-0.2,26.4-0.1,26.4-0.1v53.2c0,4.5-3.4,6.9-3.4,6.9
	c-7.9,5.5-22.5,3.4-22.5,3.4c-16.7-2.7-21.1-13.7-21.1-13.7c-5-8.5-4.8-22.9-4.8-22.9C246.5,314.3,255.5,307.1,255.5,307.1z
	 M257.7,236.9c0,0,2.9-11.5,17.9-13.4h22.8l-1,54.1l-23.9,0.6c-4.7,0.1-7.1-1.8-7.1-1.8c-7.5-5.7-9.5-13.8-9.5-13.8
	S252.7,248.4,257.7,236.9z"/>
</svg>
